<svg width="7" height="11" viewBox="0 0 7 11" fill="none" xmlns="http://www.w3.org/2000/svg">
<path d="M2.57812 0H3.60938V1.375H5.5V2.75H2.3418C1.80469 2.75 1.375 3.17969 1.375 3.7168C1.375 4.21094 1.74023 4.61914 2.21289 4.68359L4.16797 4.96289C5.32812 5.13477 6.1875 6.12305 6.1875 7.2832C6.1875 8.57227 5.13477 9.625 3.8457 9.625H3.60938V11H2.57812V9.625H0.34375V8.25H3.8457C4.38281 8.25 4.8125 7.82031 4.8125 7.2832C4.8125 6.78906 4.46875 6.38086 3.97461 6.31641L2.01953 6.03711C0.859375 5.88672 0 4.87695 0 3.7168C0 2.42773 1.05273 1.375 2.3418 1.375H2.57812V0Z" fill="black"/>
</svg>
