<svg width="13" height="10" viewBox="0 0 13 10" fill="none" xmlns="http://www.w3.org/2000/svg">
<path d="M6.1875 0C9.58203 0 11.7305 3.20117 12.375 4.8125C11.7305 6.42383 9.58203 9.625 6.1875 9.625C2.79297 9.625 0.644531 6.42383 0 4.8125C0.644531 3.20117 2.79297 0 6.1875 0ZM3.09375 4.8125C3.09375 6.53125 4.46875 7.90625 6.1875 7.90625C7.90625 7.90625 9.28125 6.53125 9.28125 4.8125C9.28125 3.09375 7.90625 1.71875 6.1875 1.71875C4.46875 1.71875 3.09375 3.09375 3.09375 4.8125ZM6.1875 6.875C5.04883 6.875 4.125 5.95117 4.125 4.8125H6.1875V2.75C7.32617 2.75 8.25 3.67383 8.25 4.8125C8.25 5.95117 7.32617 6.875 6.1875 6.875Z" fill="black"/>
</svg>
