<svg width="15" height="15" viewBox="0 0 15 15" fill="none" xmlns="http://www.w3.org/2000/svg">
<g clip-path="url(#clip0_1717_10605)">
<path d="M0.5 0.649414L0.71875 1.25098L0.5 1.87988V2.50879L1.375 3.98535L0.5 5.46191V6.33691L1.375 7.64941L0.5 8.96191V9.83691L1.375 11.3135L0.5 12.79V14.6494L1.10156 14.4307L1.73047 14.6494H2.35938L3.83594 13.7744L5.3125 14.6494H6.1875L7.5 13.7744L8.8125 14.6494H9.6875L11.1641 13.7744L12.6406 14.6494H14.5L14.2812 14.0479L14.5 13.4189V12.79L13.625 11.3135L14.5 9.83691V8.96191L13.625 7.64941L14.5 6.33691V5.46191L13.625 3.98535L14.5 2.50879V0.649414L13.8984 0.868164L13.2695 0.649414H12.6406L11.1641 1.52441L9.6875 0.649414H8.8125L7.5 1.52441L6.1875 0.649414H5.3125L3.83594 1.52441L2.35938 0.649414H0.5Z" fill="#EEEEEE"/>
<path d="M9.6875 0.649414V3.60254L12.6406 0.649414H9.6875ZM14.5 2.50879L11.5469 5.46191H14.5V2.50879ZM0.5 5.46191H3.45312L0.5 2.50879V5.46191ZM2.35938 0.649414L5.3125 3.60254V0.649414H2.35938ZM5.3125 14.6494V11.6963L2.35938 14.6494H5.3125ZM0.5 12.79L3.45312 9.83691H0.5V12.79ZM14.5 9.83691H11.5469L14.5 12.79V9.83691ZM12.6406 14.6494L9.6875 11.6963V14.6494H12.6406Z" fill="#0052B4"/>
<path d="M0.5 0.649414V1.87988L4.08203 5.46191H5.3125L0.5 0.649414ZM6.1875 0.649414V6.33691H0.5V8.96191H6.1875V14.6494H8.8125V8.96191H14.5V6.33691H8.8125V0.649414H6.1875ZM13.2695 0.649414L9.6875 4.23145V5.46191L14.5 0.649414H13.2695ZM5.3125 9.83691L0.5 14.6494H1.73047L5.3125 11.0674V9.83691ZM9.6875 9.83691L14.5 14.6494V13.4189L10.918 9.83691H9.6875Z" fill="#D80027"/>
</g>
<rect x="0.375" y="0.375" width="14.25" height="14.25" rx="7.125" stroke="#D1D1D6" stroke-width="0.75"/>
<defs>
<clipPath id="clip0_1717_10605">
<rect width="15" height="15" rx="7.5" fill="white"/>
</clipPath>
</defs>
</svg>
