<svg width="13" height="18" viewBox="0 0 13 18" fill="none" xmlns="http://www.w3.org/2000/svg">
<path d="M0 2.125C0 0.962891 0.962891 0 2.125 0H10.625C11.7871 0 12.75 0.962891 12.75 2.125V15.9707C12.75 16.834 11.8203 17.332 11.0898 16.8672L6.375 13.7129L1.66016 16.8672C0.962891 17.332 0 16.834 0 15.9707V2.125ZM2.125 1.59375C1.82617 1.59375 1.59375 1.82617 1.59375 2.125V14.9746L5.47852 12.3848C6.04297 12.0195 6.74023 12.0195 7.27148 12.3848L11.1562 14.9746V2.125C11.1562 1.82617 10.9238 1.59375 10.625 1.59375H2.125Z" fill="black"/>
</svg>
