<svg width="15" height="15" viewBox="0 0 15 15" fill="none" xmlns="http://www.w3.org/2000/svg">
<path d="M5.85949 1.40625C5.7423 1.40625 5.62512 1.52344 5.62512 1.64062V2.8125H9.37512V1.64062C9.37512 1.52344 9.25793 1.40625 9.14074 1.40625H5.85949ZM4.21887 1.64062C4.21887 0.732422 4.95129 0 5.85949 0H9.14074C10.0489 0 10.7814 0.732422 10.7814 1.64062V14.0625H4.21887V1.64062ZM12.1876 2.8125H13.1251C14.1505 2.8125 15.0001 3.66211 15.0001 4.6875V12.1875C15.0001 13.2129 14.1505 14.0625 13.1251 14.0625H12.1876V2.8125ZM2.81262 14.0625H1.87512C0.849727 14.0625 0.000117302 13.2129 0.000117302 12.1875V4.6875C0.000117302 3.66211 0.849727 2.8125 1.87512 2.8125H2.81262V14.0625Z" fill="black"/>
</svg>
