<svg width="13" height="10" viewBox="0 0 13 10" fill="none" xmlns="http://www.w3.org/2000/svg">
<path d="M2.03125 8.53125C2.48828 8.53125 2.84375 8.17578 2.84375 7.71875C2.84375 7.26172 2.48828 6.90625 2.03125 6.90625C1.57422 6.90625 1.21875 7.26172 1.21875 7.71875C1.21875 8.17578 1.57422 8.53125 2.03125 8.53125ZM3.96094 7.10938H12.3906C12.7207 7.10938 13 7.38867 13 7.71875C13 8.04883 12.7207 8.32812 12.3906 8.32812H3.96094C3.70703 9.16602 2.94531 9.75 2.03125 9.75C0.914062 9.75 0 8.83594 0 7.71875C0 6.60156 0.914062 5.6875 2.03125 5.6875C2.94531 5.6875 3.70703 6.29688 3.96094 7.10938ZM11.7812 2.03125C11.7812 1.57422 11.4258 1.21875 10.9688 1.21875C10.5117 1.21875 10.1562 1.57422 10.1562 2.03125C10.1562 2.48828 10.5117 2.84375 10.9688 2.84375C11.4258 2.84375 11.7812 2.48828 11.7812 2.03125ZM9.03906 1.42188C9.29297 0.609375 10.0547 0 10.9688 0C12.0859 0 13 0.914062 13 2.03125C13 3.14844 12.0859 4.0625 10.9688 4.0625C10.0547 4.0625 9.29297 3.47852 9.03906 2.64062H0.609375C0.279297 2.64062 0 2.36133 0 2.03125C0 1.70117 0.279297 1.42188 0.609375 1.42188H9.03906Z" fill="black"/>
</svg>
