<svg width="14" height="14" viewBox="0 0 14 14" fill="none" xmlns="http://www.w3.org/2000/svg">
<path d="M0.000117302 0.9375C0.000117302 0.410156 0.410274 0 0.937617 0H2.34387C2.87121 0 3.28137 0.410156 3.28137 0.9375V2.34375C3.28137 2.87109 2.87121 3.28125 2.34387 3.28125H0.937617C0.410274 3.28125 0.000117302 2.87109 0.000117302 2.34375V0.9375ZM0.000117302 5.85938C0.000117302 5.33203 0.410274 4.92188 0.937617 4.92188H2.34387C2.87121 4.92188 3.28137 5.33203 3.28137 5.85938V7.26562C3.28137 7.79297 2.87121 8.20312 2.34387 8.20312H0.937617C0.410274 8.20312 0.000117302 7.79297 0.000117302 7.26562V5.85938ZM3.28137 10.7812V12.1875C3.28137 12.7148 2.87121 13.125 2.34387 13.125H0.937617C0.410274 13.125 0.000117302 12.7148 0.000117302 12.1875V10.7812C0.000117302 10.2539 0.410274 9.84375 0.937617 9.84375H2.34387C2.87121 9.84375 3.28137 10.2539 3.28137 10.7812ZM4.92199 0.9375C4.92199 0.410156 5.33215 0 5.85949 0H7.26574C7.79309 0 8.20324 0.410156 8.20324 0.9375V2.34375C8.20324 2.87109 7.79309 3.28125 7.26574 3.28125H5.85949C5.33215 3.28125 4.92199 2.87109 4.92199 2.34375V0.9375ZM8.20324 5.85938V7.26562C8.20324 7.79297 7.79309 8.20312 7.26574 8.20312H5.85949C5.33215 8.20312 4.92199 7.79297 4.92199 7.26562V5.85938C4.92199 5.33203 5.33215 4.92188 5.85949 4.92188H7.26574C7.79309 4.92188 8.20324 5.33203 8.20324 5.85938ZM4.92199 10.7812C4.92199 10.2539 5.33215 9.84375 5.85949 9.84375H7.26574C7.79309 9.84375 8.20324 10.2539 8.20324 10.7812V12.1875C8.20324 12.7148 7.79309 13.125 7.26574 13.125H5.85949C5.33215 13.125 4.92199 12.7148 4.92199 12.1875V10.7812ZM13.1251 0.9375V2.34375C13.1251 2.87109 12.715 3.28125 12.1876 3.28125H10.7814C10.254 3.28125 9.84387 2.87109 9.84387 2.34375V0.9375C9.84387 0.410156 10.254 0 10.7814 0H12.1876C12.715 0 13.1251 0.410156 13.1251 0.9375ZM9.84387 5.85938C9.84387 5.33203 10.254 4.92188 10.7814 4.92188H12.1876C12.715 4.92188 13.1251 5.33203 13.1251 5.85938V7.26562C13.1251 7.79297 12.715 8.20312 12.1876 8.20312H10.7814C10.254 8.20312 9.84387 7.79297 9.84387 7.26562V5.85938ZM13.1251 10.7812V12.1875C13.1251 12.7148 12.715 13.125 12.1876 13.125H10.7814C10.254 13.125 9.84387 12.7148 9.84387 12.1875V10.7812C9.84387 10.2539 10.254 9.84375 10.7814 9.84375H12.1876C12.715 9.84375 13.1251 10.2539 13.1251 10.7812Z" fill="black"/>
</svg>
