<svg width="15" height="13" viewBox="0 0 15 13" fill="none" xmlns="http://www.w3.org/2000/svg">
<path d="M0.703242 0H2.10949C2.49035 0 2.81262 0.322266 2.81262 0.703125V2.10938C2.81262 2.49023 2.49035 2.8125 2.10949 2.8125H0.703242C0.322383 2.8125 0.000117302 2.49023 0.000117302 2.10938V0.703125C0.000117302 0.322266 0.322383 0 0.703242 0ZM5.15637 0.46875H13.5939C14.1212 0.46875 14.5314 0.878906 14.5314 1.40625C14.5314 1.93359 14.1212 2.34375 13.5939 2.34375H5.15637C4.62902 2.34375 4.21887 1.93359 4.21887 1.40625C4.21887 0.878906 4.62902 0.46875 5.15637 0.46875ZM5.15637 5.15625H13.5939C14.1212 5.15625 14.5314 5.56641 14.5314 6.09375C14.5314 6.62109 14.1212 7.03125 13.5939 7.03125H5.15637C4.62902 7.03125 4.21887 6.62109 4.21887 6.09375C4.21887 5.56641 4.62902 5.15625 5.15637 5.15625ZM5.15637 9.84375H13.5939C14.1212 9.84375 14.5314 10.2539 14.5314 10.7812C14.5314 11.3086 14.1212 11.7188 13.5939 11.7188H5.15637C4.62902 11.7188 4.21887 11.3086 4.21887 10.7812C4.21887 10.2539 4.62902 9.84375 5.15637 9.84375ZM0.000117302 5.39062C0.000117302 5.00977 0.322383 4.6875 0.703242 4.6875H2.10949C2.49035 4.6875 2.81262 5.00977 2.81262 5.39062V6.79688C2.81262 7.17773 2.49035 7.5 2.10949 7.5H0.703242C0.322383 7.5 0.000117302 7.17773 0.000117302 6.79688V5.39062ZM0.703242 9.375H2.10949C2.49035 9.375 2.81262 9.69727 2.81262 10.0781V11.4844C2.81262 11.8652 2.49035 12.1875 2.10949 12.1875H0.703242C0.322383 12.1875 0.000117302 11.8652 0.000117302 11.4844V10.0781C0.000117302 9.69727 0.322383 9.375 0.703242 9.375Z" fill="black"/>
</svg>
