<svg width="131" height="57" viewBox="0 0 131 57" fill="none" xmlns="http://www.w3.org/2000/svg">
<path d="M65.8987 31.2688H40.8872C40.9071 31.5539 40.7624 32.124 41.1198 32.2369C43.5764 32.5954 48.4868 32.7196 49.6556 35.3052C50.0811 36.248 50.1945 37.7581 50.2456 38.8053C50.3704 41.2921 50.5491 47.0418 49.979 49.2605C48.3705 55.5324 36.3683 55.4365 31.3444 54.7844C14.48 52.5997 7.2293 37.4589 9.4533 21.7846C11.561 6.94299 24.0965 -0.237877 38.5299 1.83678C46.6713 3.00819 52.7221 8.37409 55.8397 15.7751L56.9006 15.7695L55.0681 2.30253C42.419 -0.249168 29.1346 -1.72542 16.9848 3.62353C4.83509 8.97249 -2.42412 21.0987 0.741676 34.9044C5.09891 53.9207 28.1247 59.2979 45.0005 55.5748C49.3662 54.6122 53.6412 52.8678 58.1771 52.9666L57.8878 48.8145C58.0835 45.1168 57.6467 41.1961 57.8878 37.5294C58.1091 34.131 59.5983 33.4083 62.6847 32.7196C63.2038 32.6039 65.842 32.2849 65.9782 32.1918C66.2165 32.0309 66.1597 31.3478 65.8987 31.2659V31.2688ZM128.88 15.761L127.161 2.47753L126.948 2.26583C112.089 -0.839106 94.8363 -2.09237 82.1391 7.67971C68.0178 18.5498 68.7638 40.4368 83.4979 50.4065C92.391 56.4244 104.598 57.4519 115.054 56.1929C119.218 55.6905 123.331 54.7562 127.371 53.6779L130.293 40.2985L129.32 40.1517C126.316 48.058 118.818 54.4993 110.109 55.0808C89.4437 56.4611 78.4258 40.2223 81.6001 20.9519C83.9035 6.95146 95.8632 0.230686 109.525 1.69283C118.191 2.62149 124.639 8.0269 127.907 15.8965L128.88 15.7582V15.761Z" fill="white"/>
</svg>
