<svg width="22" height="16" viewBox="0 0 22 16" fill="none" xmlns="http://www.w3.org/2000/svg">
<path d="M12.75 3.71875C12.75 2.55664 11.7871 1.59375 10.625 1.59375C9.46289 1.59375 8.5 2.55664 8.5 3.71875C8.5 4.88086 9.46289 5.84375 10.625 5.84375C11.7871 5.84375 12.75 4.88086 12.75 3.71875ZM6.90625 3.71875C6.90625 1.66016 8.56641 0 10.625 0C12.6836 0 14.3438 1.66016 14.3438 3.71875C14.3438 5.77734 12.6836 7.4375 10.625 7.4375C8.56641 7.4375 6.90625 5.77734 6.90625 3.71875ZM15.3066 6.24219C15.5059 6.3418 15.7051 6.375 15.9375 6.375C16.834 6.375 17.5312 5.67773 17.5312 4.78125C17.5312 3.91797 16.834 3.1875 15.9375 3.1875H15.9043C15.8711 2.62305 15.7051 2.125 15.5059 1.62695C15.6387 1.59375 15.8047 1.59375 15.9375 1.59375C17.6973 1.59375 19.125 3.02148 19.125 4.78125C19.125 6.54102 17.6973 7.96875 15.9375 7.96875C15.3398 7.96875 14.8086 7.80273 14.3105 7.53711C14.709 7.17188 15.041 6.70703 15.3066 6.24219ZM6.93945 7.53711C6.44141 7.80273 5.91016 7.96875 5.3125 7.96875C3.55273 7.96875 2.125 6.54102 2.125 4.78125C2.125 3.02148 3.55273 1.59375 5.3125 1.59375C5.44531 1.59375 5.61133 1.59375 5.74414 1.62695C5.54492 2.125 5.37891 2.65625 5.3457 3.1875H5.3125C4.44922 3.1875 3.71875 3.91797 3.71875 4.78125C3.71875 5.67773 4.44922 6.375 5.3125 6.375C5.54492 6.375 5.74414 6.3418 5.94336 6.24219C6.20898 6.70703 6.54102 7.17188 6.93945 7.53711ZM14.3438 9.03125L16.668 15.4062H14.9746L13.2148 10.625H8.03516L6.27539 15.4062H4.58203L6.90625 9.03125H14.3438ZM5.01367 9.5625L4.44922 11.1562H3.25391L1.69336 15.4062H0L2.125 9.5625H5.01367ZM16.8008 11.1562L16.2363 9.5625H19.125L21.25 15.4062H19.5566L17.9961 11.1562H16.8008Z" fill="black"/>
</svg>
