<svg width="24" height="24" viewBox="0 0 24 24" fill="none" xmlns="http://www.w3.org/2000/svg">
<path d="M13.0781 0.84375L15.1875 8.8125L23.1562 10.9219C23.625 11.0625 24 11.4844 24 12C24 12.5156 23.6719 12.9375 23.1562 13.0781L15.1875 15.1875L13.0781 23.1562C12.9375 23.6719 12.5156 24 12 24C11.4844 24 11.0625 23.6719 10.9219 23.1562L8.8125 15.1875L0.84375 13.0781C0.328125 12.9844 0 12.5156 0 12C0 11.4844 0.328125 11.0625 0.84375 10.9219L8.8125 8.8125L10.9219 0.84375C11.0625 0.328125 11.4844 0 12 0C12.5156 0 12.9844 0.328125 13.0781 0.84375ZM10.8281 10.0312C10.7344 10.4062 10.4062 10.7344 10.0312 10.8281L5.57812 12L10.0312 13.1719C10.4062 13.2656 10.7344 13.5938 10.8281 13.9688L12 18.4219L13.1719 13.9688C13.2656 13.5938 13.5938 13.2656 13.9688 13.1719L18.4219 12L13.9688 10.8281C13.5938 10.7344 13.2656 10.4062 13.1719 10.0312L12 5.57812L10.8281 10.0312ZM3.32812 3.32812C3.75 2.90625 4.5 2.90625 4.92188 3.32812L7.17188 5.57812C7.59375 6 7.59375 6.75 7.17188 7.17188C6.75 7.59375 6 7.59375 5.57812 7.17188L3.32812 4.92188C2.90625 4.5 2.90625 3.75 3.32812 3.32812ZM20.6719 3.32812C21.0938 3.75 21.0938 4.5 20.6719 4.92188L18.4219 7.17188C18 7.59375 17.2969 7.59375 16.8281 7.17188C16.4062 6.75 16.4062 6 16.8281 5.57812L19.0781 3.32812C19.5 2.90625 20.25 2.90625 20.6719 3.32812ZM20.6719 19.0781C21.0938 19.5 21.0938 20.25 20.6719 20.6719C20.25 21.0938 19.5469 21.0938 19.0781 20.6719L16.8281 18.4219C16.4062 18 16.4062 17.25 16.8281 16.8281C17.25 16.4062 18 16.4062 18.4219 16.8281L20.6719 19.0781ZM3.32812 20.6719C2.90625 20.25 2.90625 19.5 3.32812 19.0781L5.57812 16.8281C6 16.4062 6.75 16.4062 7.17188 16.8281C7.59375 17.25 7.59375 18 7.17188 18.4219L4.92188 20.6719C4.5 21.0938 3.75 21.0938 3.32812 20.6719Z" fill="url(#paint0_linear_3186_50137)"/>
<defs>
<linearGradient id="paint0_linear_3186_50137" x1="0" y1="0" x2="24" y2="24" gradientUnits="userSpaceOnUse">
<stop stop-color="#9B3CFF"/>
<stop offset="1" stop-color="#2D67FF"/>
</linearGradient>
</defs>
</svg>
