<svg width="13" height="13" viewBox="0 0 13 13" fill="none" xmlns="http://www.w3.org/2000/svg">
<path d="M6.5 1.21875C3.58008 1.21875 1.21875 3.58008 1.21875 6.5C1.21875 9.41992 3.58008 11.7812 6.5 11.7812C9.41992 11.7812 11.7812 9.41992 11.7812 6.5C11.7812 3.58008 9.41992 1.21875 6.5 1.21875ZM6.5 13C2.91992 13 0 10.0801 0 6.5C0 2.91992 2.91992 0 6.5 0C10.0801 0 13 2.91992 13 6.5C13 10.0801 10.0801 13 6.5 13ZM5.48438 8.53125H6.09375V6.90625H4.875V5.6875H7.3125V8.53125H8.125V9.75H4.875V8.53125H5.48438ZM7.3125 4.875H5.6875V3.25H7.3125V4.875Z" fill="url(#paint0_linear_2073_27379)"/>
<defs>
<linearGradient id="paint0_linear_2073_27379" x1="12.9946" y1="13.9966" x2="-2.51019" y2="1.95595" gradientUnits="userSpaceOnUse">
<stop stop-color="#073BC3"/>
<stop offset="0.54" stop-color="#131DBB"/>
<stop offset="1" stop-color="#5D07B7"/>
</linearGradient>
</defs>
</svg>
