<svg width="23" height="24" viewBox="0 0 23 24" fill="none" xmlns="http://www.w3.org/2000/svg">
<path d="M3.75 4.5H21.4688C22.125 4.5 22.6875 5.0625 22.6875 5.71875C22.6875 5.90625 22.6406 6.09375 22.5938 6.23438L19.6875 12.75L22.5938 19.2656C22.6406 19.4062 22.6875 19.5938 22.6875 19.7812C22.6875 20.4375 22.125 21 21.4688 21H3.1875V24H0.9375V4.35938C0.375 3.9375 0 3.23438 0 2.4375C0 1.07812 1.07812 0 2.4375 0C3.79688 0 4.875 1.07812 4.875 2.4375C4.875 3.32812 4.40625 4.07812 3.75 4.5ZM3.1875 18.75H19.875L17.625 13.6875C17.3906 13.0781 17.3906 12.4219 17.625 11.8594L19.875 6.75H3.1875V18.75Z" fill="url(#paint0_linear_3186_50122)"/>
<defs>
<linearGradient id="paint0_linear_3186_50122" x1="-0.5625" y1="0" x2="23.4375" y2="24" gradientUnits="userSpaceOnUse">
<stop stop-color="#9B3CFF"/>
<stop offset="1" stop-color="#2D67FF"/>
</linearGradient>
</defs>
</svg>
