<svg width="13" height="13" viewBox="0 0 13 13" fill="none" xmlns="http://www.w3.org/2000/svg">
<path d="M6.5 1.21875C3.58008 1.21875 1.21875 3.58008 1.21875 6.5C1.21875 9.41992 3.58008 11.7812 6.5 11.7812C9.41992 11.7812 11.7812 9.41992 11.7812 6.5C11.7812 3.58008 9.41992 1.21875 6.5 1.21875ZM6.5 13C2.91992 13 0 10.0801 0 6.5C0 2.91992 2.91992 0 6.5 0C10.0801 0 13 2.91992 13 6.5C13 10.0801 10.0801 13 6.5 13ZM5.48438 8.53125H6.09375V6.90625H5.48438C5.1543 6.90625 4.875 6.62695 4.875 6.29688C4.875 5.9668 5.1543 5.6875 5.48438 5.6875H6.70312C7.0332 5.6875 7.3125 5.9668 7.3125 6.29688V8.53125H7.51562C7.8457 8.53125 8.125 8.81055 8.125 9.14062C8.125 9.4707 7.8457 9.75 7.51562 9.75H5.48438C5.1543 9.75 4.875 9.4707 4.875 9.14062C4.875 8.81055 5.1543 8.53125 5.48438 8.53125ZM6.5 4.875C6.04297 4.875 5.6875 4.51953 5.6875 4.0625C5.6875 3.60547 6.04297 3.25 6.5 3.25C6.95703 3.25 7.3125 3.60547 7.3125 4.0625C7.3125 4.51953 6.95703 4.875 6.5 4.875Z" fill="url(#paint0_linear_475_11568)"/>
<defs>
<linearGradient id="paint0_linear_475_11568" x1="14.993" y1="17.8075" x2="-7.29463" y2="2.71839" gradientUnits="userSpaceOnUse">
<stop stop-color="#073BC3"/>
<stop offset="0.54" stop-color="#131DBB"/>
<stop offset="1" stop-color="#5D07B7"/>
</linearGradient>
</defs>
</svg>
