<svg width="70" height="21" viewBox="0 0 70 21" fill="none" xmlns="http://www.w3.org/2000/svg">
<path d="M0 4C0 1.79086 1.79086 0 4 0H66C68.2091 0 70 1.79086 70 4V17C70 19.2091 68.2091 21 66 21H4C1.79086 21 0 19.2091 0 17V4Z" fill="url(#paint0_linear_2982_41988)" fill-opacity="0.15"/>
<path d="M10.75 7.125V8.375H13.25V7.125C13.25 6.44141 12.6836 5.875 12 5.875C11.3164 5.875 10.75 6.44141 10.75 7.125ZM9.5 8.375V7.125C9.5 5.73828 10.6133 4.625 12 4.625C13.3867 4.625 14.5 5.73828 14.5 7.125V8.375H15.75V15.25H8.25V8.375H9.5Z" fill="black"/>
<path d="M23.034 14V6.3H26.202C26.884 6.3 27.467 6.41 27.951 6.63C28.4423 6.85 28.82 7.16533 29.084 7.576C29.348 7.98667 29.48 8.47433 29.48 9.039C29.48 9.60367 29.348 10.0913 29.084 10.502C28.82 10.9127 28.4423 11.228 27.951 11.448C27.467 11.668 26.884 11.778 26.202 11.778H23.826L24.464 11.107V14H23.034ZM24.464 11.261L23.826 10.568H26.136C26.7667 10.568 27.2397 10.436 27.555 10.172C27.8777 9.90067 28.039 9.523 28.039 9.039C28.039 8.54767 27.8777 8.17 27.555 7.906C27.2397 7.642 26.7667 7.51 26.136 7.51H23.826L24.464 6.806V11.261ZM30.7223 14V8.126H32.0313V9.743L31.8773 9.27C32.0533 8.874 32.3283 8.57333 32.7023 8.368C33.0836 8.16267 33.5566 8.06 34.1213 8.06V9.369C34.0626 9.35433 34.0076 9.347 33.9563 9.347C33.905 9.33967 33.8536 9.336 33.8023 9.336C33.2816 9.336 32.8673 9.49 32.5593 9.798C32.2513 10.0987 32.0973 10.5497 32.0973 11.151V14H30.7223ZM35.2877 14V8.126H36.6627V14H35.2877ZM35.9807 7.158C35.7241 7.158 35.5114 7.07733 35.3427 6.916C35.1814 6.75467 35.1007 6.56033 35.1007 6.333C35.1007 6.09833 35.1814 5.904 35.3427 5.75C35.5114 5.58867 35.7241 5.508 35.9807 5.508C36.2374 5.508 36.4464 5.585 36.6077 5.739C36.7764 5.88567 36.8607 6.07267 36.8607 6.3C36.8607 6.542 36.7801 6.74733 36.6187 6.916C36.4574 7.07733 36.2447 7.158 35.9807 7.158ZM40.0294 14L37.5104 8.126H38.9404L41.1074 13.307H40.4034L42.6474 8.126H43.9674L41.4484 14H40.0294ZM48.2632 14V12.812L48.1862 12.559V10.48C48.1862 10.0767 48.0652 9.765 47.8232 9.545C47.5812 9.31767 47.2145 9.204 46.7232 9.204C46.3932 9.204 46.0669 9.25533 45.7442 9.358C45.4289 9.46067 45.1612 9.60367 44.9412 9.787L44.4022 8.786C44.7175 8.544 45.0915 8.36433 45.5242 8.247C45.9642 8.12233 46.4189 8.06 46.8882 8.06C47.7389 8.06 48.3952 8.26533 48.8572 8.676C49.3265 9.07933 49.5612 9.70633 49.5612 10.557V14H48.2632ZM46.4152 14.077C45.9752 14.077 45.5902 14.0037 45.2602 13.857C44.9302 13.703 44.6735 13.494 44.4902 13.23C44.3142 12.9587 44.2262 12.6543 44.2262 12.317C44.2262 11.987 44.3032 11.69 44.4572 11.426C44.6185 11.162 44.8789 10.953 45.2382 10.799C45.5975 10.645 46.0742 10.568 46.6682 10.568H48.3732V11.481H46.7672C46.2979 11.481 45.9825 11.558 45.8212 11.712C45.6599 11.8587 45.5792 12.042 45.5792 12.262C45.5792 12.5113 45.6782 12.7093 45.8762 12.856C46.0742 13.0027 46.3492 13.076 46.7012 13.076C47.0385 13.076 47.3392 12.999 47.6032 12.845C47.8745 12.691 48.0689 12.4637 48.1862 12.163L48.4172 12.988C48.2852 13.3327 48.0469 13.6003 47.7022 13.791C47.3649 13.9817 46.9359 14.077 46.4152 14.077ZM53.5368 14.077C52.8915 14.077 52.3928 13.912 52.0408 13.582C51.6888 13.2447 51.5128 12.7497 51.5128 12.097V6.828H52.8878V12.064C52.8878 12.3427 52.9575 12.559 53.0968 12.713C53.2435 12.867 53.4452 12.944 53.7018 12.944C54.0098 12.944 54.2665 12.8633 54.4718 12.702L54.8568 13.681C54.6955 13.813 54.4975 13.912 54.2628 13.978C54.0282 14.044 53.7862 14.077 53.5368 14.077ZM50.5448 9.27V8.17H54.4608V9.27H50.5448ZM58.5556 14.077C57.9029 14.077 57.3309 13.9487 56.8396 13.692C56.3556 13.428 55.9779 13.0687 55.7066 12.614C55.4426 12.1593 55.3106 11.6423 55.3106 11.063C55.3106 10.4763 55.4389 9.95933 55.6956 9.512C55.9596 9.05733 56.3189 8.70167 56.7736 8.445C57.2356 8.18833 57.7599 8.06 58.3466 8.06C58.9186 8.06 59.4282 8.18467 59.8756 8.434C60.3229 8.68333 60.6749 9.03533 60.9316 9.49C61.1882 9.94467 61.3166 10.48 61.3166 11.096C61.3166 11.1547 61.3129 11.2207 61.3056 11.294C61.3056 11.3673 61.3019 11.437 61.2946 11.503H56.3996V10.59H60.5686L60.0296 10.876C60.0369 10.5387 59.9672 10.2417 59.8206 9.985C59.6739 9.72833 59.4722 9.52667 59.2156 9.38C58.9662 9.23333 58.6766 9.16 58.3466 9.16C58.0092 9.16 57.7122 9.23333 57.4556 9.38C57.2062 9.52667 57.0082 9.732 56.8616 9.996C56.7222 10.2527 56.6526 10.557 56.6526 10.909V11.129C56.6526 11.481 56.7332 11.7927 56.8946 12.064C57.0559 12.3353 57.2832 12.5443 57.5766 12.691C57.8699 12.8377 58.2072 12.911 58.5886 12.911C58.9186 12.911 59.2156 12.8597 59.4796 12.757C59.7436 12.6543 59.9782 12.493 60.1836 12.273L60.9206 13.12C60.6566 13.428 60.3229 13.6663 59.9196 13.835C59.5236 13.9963 59.0689 14.077 58.5556 14.077Z" fill="black"/>
<defs>
<linearGradient id="paint0_linear_2982_41988" x1="0" y1="0" x2="11.5596" y2="38.5321" gradientUnits="userSpaceOnUse">
<stop stop-color="#9B3CFF"/>
<stop offset="1" stop-color="#2D67FF"/>
</linearGradient>
</defs>
</svg>
