<svg width="21" height="21" viewBox="0 0 21 21" fill="none" xmlns="http://www.w3.org/2000/svg">
<path d="M19.8438 0.703125L20 1.28906C20.3516 3.04688 20.5469 5.74219 19.2188 8.35938C18.3984 9.92188 17.0703 11.3672 15 12.5781V16.7969C11.6797 18.7891 9.57031 20.0391 8.75 20.5469V14.375L8.71094 14.3359L6.21094 11.8359L6.17188 11.7969H0C0.507812 10.9766 1.75781 8.86719 3.75 5.54688H7.96875C9.17969 3.47656 10.625 2.14844 12.1875 1.32812C14.8047 0 17.5 0.234375 19.2578 0.585938L19.8438 0.703125ZM13.125 13.4766C12.3828 13.7891 11.5234 14.0625 10.625 14.3359V17.2266L13.125 15.7422V13.4766ZM6.21094 9.92188C6.48438 9.02344 6.75781 8.16406 7.07031 7.42188H4.80469L3.32031 9.92188H6.21094ZM7.92969 10.8984L9.6875 12.6562C14.3359 11.4453 16.5625 9.45312 17.5391 7.5C18.4766 5.70312 18.4766 3.78906 18.2422 2.30469C16.7578 2.07031 14.8438 2.07031 13.0469 3.00781C11.0938 4.02344 9.10156 6.21094 7.92969 10.8984ZM14.375 4.60938C15.2344 4.60938 15.9375 5.3125 15.9375 6.17188C15.9375 7.03125 15.2344 7.73438 14.375 7.73438C13.5156 7.73438 12.8125 7.03125 12.8125 6.17188C12.8125 5.3125 13.5156 4.60938 14.375 4.60938Z" fill="url(#paint0_linear_1933_16895)"/>
<defs>
<linearGradient id="paint0_linear_1933_16895" x1="35.2302" y1="20.2293" x2="15.5114" y2="-17.4646" gradientUnits="userSpaceOnUse">
<stop stop-color="#073BC3"/>
<stop offset="0.54" stop-color="#131DBB"/>
<stop offset="1" stop-color="#5D07B7"/>
</linearGradient>
</defs>
</svg>
