<svg width="20" height="20" viewBox="0 0 20 20" fill="none" xmlns="http://www.w3.org/2000/svg">
<path d="M4.78125 12.8164L3.1875 13.8125V11.1562H0V0H12.75V11.1562H7.4375L4.78125 12.8164ZM4.78125 10.9238C6.24219 10.0273 6.97266 9.5625 6.97266 9.5625H11.1562V1.59375H1.59375V9.5625H4.78125V10.9238ZM6.375 14.875V13.7129L7.90234 12.75H7.96875V14.875H12.1523C12.1523 14.875 12.916 15.3398 14.3438 16.2363V14.875H17.5312V6.90625H14.3438V5.3125H19.125V16.4688H15.9375V19.125L11.6875 16.4688H6.375V14.875ZM7.17188 2.125V2.92188H8.10156V4.25H6.00977C5.84375 4.25 5.71094 4.38281 5.71094 4.54883C5.71094 4.68164 5.81055 4.78125 5.94336 4.81445L7.07227 5.04688C7.83594 5.17969 8.36719 5.84375 8.36719 6.60742C8.36719 7.37109 7.86914 8.00195 7.17188 8.16797V9.03125H5.84375V8.23438H4.64844V6.90625H6.74023C6.90625 6.90625 7.03906 6.77344 7.03906 6.60742C7.03906 6.47461 6.93945 6.375 6.80664 6.3418L5.67773 6.10938C4.91406 5.97656 4.38281 5.3125 4.38281 4.54883C4.38281 3.68555 5.01367 3.02148 5.84375 2.92188V2.125H7.17188Z" fill="black"/>
</svg>
