<svg width="20" height="19" viewBox="0 0 20 19" fill="none" xmlns="http://www.w3.org/2000/svg">
<path d="M4.2168 4.78125C4.2168 2.125 6.375 0 8.99805 0C11.6543 0 13.7793 2.125 13.7793 4.78125C13.7793 7.4375 11.6543 9.5625 8.99805 9.5625C6.375 9.5625 4.2168 7.4375 4.2168 4.78125ZM9.5293 2.39062V1.59375H8.4668V2.39062C7.73633 2.42383 7.13867 3.05469 7.13867 3.78516C7.13867 4.48242 7.63672 5.04688 8.30078 5.17969L9.79492 5.44531C9.96094 5.47852 10.0605 5.61133 10.0605 5.77734C10.0605 5.97656 9.92773 6.10938 9.72852 6.10938H7.4043V7.17188H8.4668V7.96875H9.5293V7.17188H9.72852C10.4922 7.17188 11.123 6.54102 11.123 5.77734C11.123 5.11328 10.6582 4.51562 9.99414 4.38281L8.5 4.11719C8.33398 4.08398 8.20117 3.95117 8.20117 3.78516C8.20117 3.61914 8.36719 3.45312 8.56641 3.45312H10.5918V2.39062H9.5293ZM5.3125 10.625H12.7168V13.2812H13.0156C15.5391 11.6875 16.834 10.8906 16.8672 10.8574C16.9668 10.9902 17.6309 12.1191 18.8926 14.2109L19.291 14.875L18.627 15.2734L14.4766 17.9297L14.3105 18.0625H0V16.4688H13.8457L17.1328 14.3438L16.3359 13.082L13.6797 14.7422L13.5137 14.875H7.70312V13.2812H11.1562V12.2188H5.81055L2.82227 14.2109L2.62305 14.3438H0V12.75H2.125L5.11328 10.7578L5.3125 10.625Z" fill="black"/>
</svg>
