<svg width="23" height="18" viewBox="0 0 23 18" fill="none" xmlns="http://www.w3.org/2000/svg">
<path d="M2.07031 8.75C2.65625 9.96094 3.67188 11.5234 5.03906 12.8516C6.71875 14.4531 8.78906 15.625 11.25 15.625C13.7109 15.625 15.7812 14.4922 17.4609 12.8516C18.8672 11.5234 19.8438 9.96094 20.4688 8.75C19.8438 7.53906 18.8672 5.97656 17.4609 4.64844C15.7812 3.04688 13.7109 1.875 11.25 1.875C8.78906 1.875 6.71875 3.04688 5.03906 4.64844C3.67188 5.97656 2.65625 7.53906 2.07031 8.75ZM22.5 8.75C21.3281 11.6797 17.4219 17.5 11.25 17.5C5.07812 17.5 1.17188 11.6797 0 8.75C1.17188 5.82031 5.07812 0 11.25 0C17.4219 0 21.3281 5.82031 22.5 8.75ZM11.25 11.875C12.9688 11.875 14.375 10.4688 14.375 8.75C14.375 7.46094 13.5938 6.36719 12.5 5.89844V10H8.39844C8.86719 11.0938 9.96094 11.875 11.25 11.875ZM8.20312 8.125H10.625V5.70312C9.41406 5.9375 8.4375 6.91406 8.20312 8.125ZM11.25 3.75C14.0234 3.75 16.25 5.97656 16.25 8.75C16.25 11.5234 14.0234 13.75 11.25 13.75C8.47656 13.75 6.25 11.5234 6.25 8.75C6.25 5.97656 8.47656 3.75 11.25 3.75Z" fill="url(#paint0_linear_1933_16242)"/>
<defs>
<linearGradient id="paint0_linear_1933_16242" x1="35.2302" y1="19.6825" x2="15.5114" y2="-18.0115" gradientUnits="userSpaceOnUse">
<stop stop-color="#073BC3"/>
<stop offset="0.54" stop-color="#131DBB"/>
<stop offset="1" stop-color="#5D07B7"/>
</linearGradient>
</defs>
</svg>
