<svg width="21" height="21" viewBox="0 0 21 21" fill="none" xmlns="http://www.w3.org/2000/svg">
<path d="M14.3359 8.125C14.3359 4.6875 11.5625 1.875 8.08594 1.875C4.64844 1.875 1.83594 4.6875 1.83594 8.125C1.83594 11.5625 4.64844 14.375 8.08594 14.375C11.5625 14.375 14.3359 11.5625 14.3359 8.125ZM13.1641 14.4922C11.7578 15.5859 10 16.25 8.125 16.25C3.63281 16.25 0 12.6172 0 8.125C0 3.63281 3.63281 0 8.125 0C12.5781 0 16.25 3.63281 16.25 8.125C16.25 10.0391 15.5859 11.7969 14.4922 13.1641L19.7266 18.3984L20.3906 19.0625L19.0625 20.3906L18.3984 19.7266L13.1641 14.4922Z" fill="url(#paint0_linear_1933_15487)"/>
<defs>
<linearGradient id="paint0_linear_1933_15487" x1="33.9411" y1="20.9325" x2="14.2223" y2="-16.7615" gradientUnits="userSpaceOnUse">
<stop stop-color="#073BC3"/>
<stop offset="0.54" stop-color="#131DBB"/>
<stop offset="1" stop-color="#5D07B7"/>
</linearGradient>
</defs>
</svg>
