<svg width="18" height="20" viewBox="0 0 18 20" fill="none" xmlns="http://www.w3.org/2000/svg">
<path d="M5.625 5C5.625 6.71875 7.03125 8.125 8.75 8.125C10.4688 8.125 11.875 6.71875 11.875 5C11.875 3.28125 10.4688 1.875 8.75 1.875C7.03125 1.875 5.625 3.28125 5.625 5ZM1.95312 20H0L2.5 11.875H15L17.5 20H15.5469L13.6328 13.75H3.86719L1.95312 20ZM8.75 10C5.97656 10 3.75 7.77344 3.75 5C3.75 2.22656 5.97656 0 8.75 0C11.5234 0 13.75 2.22656 13.75 5C13.75 7.77344 11.5234 10 8.75 10Z" fill="url(#paint0_linear_4034_87581)"/>
<defs>
<linearGradient id="paint0_linear_4034_87581" x1="32.7302" y1="20.9325" x2="13.0114" y2="-16.7615" gradientUnits="userSpaceOnUse">
<stop stop-color="#073BC3"/>
<stop offset="0.54" stop-color="#131DBB"/>
<stop offset="1" stop-color="#5D07B7"/>
</linearGradient>
</defs>
</svg>
