<svg width="20" height="18" viewBox="0 0 20 18" fill="none" xmlns="http://www.w3.org/2000/svg">
<path d="M3.78906 0H9.10156V6.25H7.22656V3.20312L1.95312 8.47656L1.28906 9.14062L0 7.8125L0.664062 7.14844L5.9375 1.875H2.85156V0H3.78906ZM16.1328 1.48438C16.1328 0.664062 16.7969 0 17.6172 0C18.4375 0 19.1406 0.664062 19.1406 1.48438C19.1406 2.30469 18.4375 2.96875 17.6172 2.96875C16.7969 2.96875 16.1328 2.30469 16.1328 1.48438ZM11.2891 6.32812C11.2891 5.50781 11.9531 4.84375 12.7734 4.84375C13.5938 4.84375 14.2578 5.50781 14.2578 6.32812C14.2578 7.14844 13.5938 7.8125 12.7734 7.8125C11.9531 7.8125 11.2891 7.14844 11.2891 6.32812ZM17.6172 4.84375C18.4375 4.84375 19.1016 5.50781 19.1016 6.32812C19.1016 7.14844 18.4375 7.8125 17.6172 7.8125C16.7969 7.8125 16.1328 7.14844 16.1328 6.32812C16.1328 5.50781 16.7969 4.84375 17.6172 4.84375ZM6.48438 11.1719C6.48438 10.3516 7.14844 9.6875 7.96875 9.6875C8.78906 9.6875 9.45312 10.3516 9.45312 11.1719C9.45312 11.9922 8.78906 12.6562 7.96875 12.6562C7.14844 12.6562 6.48438 11.9922 6.48438 11.1719ZM12.7734 9.6875C13.5938 9.6875 14.2578 10.3516 14.2578 11.1719C14.2578 11.9922 13.5938 12.6562 12.7734 12.6562C11.9531 12.6562 11.2891 11.9922 11.2891 11.1719C11.2891 10.3516 11.9531 9.6875 12.7734 9.6875ZM16.1328 11.1719C16.1328 10.3516 16.7969 9.6875 17.6172 9.6875C18.4375 9.6875 19.1406 10.3516 19.1406 11.1719C19.1406 11.9922 18.4375 12.6562 17.6172 12.6562C16.7969 12.6562 16.1328 11.9922 16.1328 11.1719ZM3.125 14.5312C3.94531 14.5312 4.60938 15.1953 4.60938 16.0156C4.60938 16.8359 3.94531 17.5 3.125 17.5C2.26562 17.5 1.60156 16.8359 1.60156 16.0156C1.60156 15.1953 2.26562 14.5312 3.125 14.5312ZM6.48438 16.0156C6.48438 15.1953 7.14844 14.5312 7.96875 14.5312C8.78906 14.5312 9.45312 15.1953 9.45312 16.0156C9.45312 16.8359 8.78906 17.5 7.96875 17.5C7.14844 17.5 6.48438 16.8359 6.48438 16.0156ZM12.7734 14.5312C13.5938 14.5312 14.2578 15.1953 14.2578 16.0156C14.2578 16.8359 13.5938 17.5 12.7734 17.5C11.9531 17.5 11.2891 16.8359 11.2891 16.0156C11.2891 15.1953 11.9531 14.5312 12.7734 14.5312ZM16.1328 16.0156C16.1328 15.1953 16.7969 14.5312 17.6172 14.5312C18.4375 14.5312 19.1406 15.1953 19.1406 16.0156C19.1406 16.8359 18.4375 17.5 17.6172 17.5C16.7969 17.5 16.1328 16.8359 16.1328 16.0156Z" fill="url(#paint0_linear_1311_9320)"/>
<defs>
<linearGradient id="paint0_linear_1311_9320" x1="34.3318" y1="19.6825" x2="14.613" y2="-18.0115" gradientUnits="userSpaceOnUse">
<stop stop-color="#073BC3"/>
<stop offset="0.54" stop-color="#131DBB"/>
<stop offset="1" stop-color="#5D07B7"/>
</linearGradient>
</defs>
</svg>
