<svg width="20" height="20" viewBox="0 0 20 20" fill="none" xmlns="http://www.w3.org/2000/svg">
<path d="M12.5 0C14.4141 0 16.1719 0.3125 17.5 0.859375C18.125 1.09375 18.7109 1.44531 19.1797 1.83594C19.6094 2.1875 20 2.73438 20 3.4375V11.5625C20 12.2656 19.6094 12.8125 19.1797 13.2031C18.7109 13.5938 18.125 13.9062 17.5 14.1406C17.3047 14.2188 17.0703 14.2969 16.875 14.375V12.3828C17.3828 12.1875 17.7344 11.9531 17.9297 11.7578C18.0859 11.6406 18.125 11.5625 18.125 11.5234V9.96094C17.7344 10.1172 17.3047 10.2734 16.875 10.3906V8.4375C17.1875 8.32031 17.4609 8.24219 17.6953 8.125C17.8516 8.00781 18.0078 7.92969 18.125 7.85156V5.78125C17.9297 5.89844 17.6953 5.97656 17.4609 6.09375C17.1094 6.21094 16.7188 6.32812 16.3281 6.44531C16.0547 6.01562 15.7422 5.625 15.4297 5.35156C15.2344 5.19531 15 5 14.7656 4.84375C16.7578 4.60938 18.125 4.0625 18.125 3.4375C18.125 2.65625 15.5859 1.875 12.5 1.875C9.80469 1.875 7.53906 2.46094 6.99219 3.125C6.32812 3.125 5.66406 3.20312 5 3.28125C5.03906 2.65625 5.42969 2.14844 5.82031 1.79688C6.28906 1.40625 6.875 1.09375 7.5 0.859375C8.82812 0.3125 10.5859 0 12.5 0ZM2.5 5.85938C3.82812 5.3125 5.58594 5 7.5 5C9.41406 5 11.1719 5.3125 12.5 5.85938C13.125 6.09375 13.7109 6.44531 14.1797 6.83594C14.6094 7.1875 15 7.73438 15 8.4375V16.5625C15 17.2656 14.6094 17.8125 14.1797 18.2031C13.7109 18.5938 13.125 18.9062 12.5 19.1406C11.1719 19.6875 9.41406 20 7.5 20C5.58594 20 3.82812 19.6875 2.5 19.1406C1.875 18.9062 1.28906 18.5547 0.820312 18.2031C0.390625 17.8125 0 17.2656 0 16.5625V8.4375C0 7.73438 0.390625 7.1875 0.820312 6.83594C1.28906 6.44531 1.875 6.09375 2.5 5.85938ZM12.4609 11.0938C11.1719 11.6016 9.41406 11.875 7.5 11.875C5.625 11.875 3.82812 11.6016 2.53906 11.0938C2.30469 11.0156 2.07031 10.8984 1.875 10.8203V12.8516C1.99219 12.9297 2.14844 13.0469 2.34375 13.125C2.69531 13.2812 3.125 13.4766 3.67188 13.5938C4.76562 13.9062 6.09375 14.0625 7.5 14.0625C8.90625 14.0625 10.2344 13.9062 11.3281 13.5938C11.875 13.4766 12.3047 13.2812 12.6953 13.125C12.8516 13.0469 13.0078 12.9297 13.125 12.8516V10.8203C12.9297 10.8984 12.6953 11.0156 12.4609 11.0938ZM1.875 14.9609V16.5625C1.875 16.5625 1.91406 16.6406 2.07031 16.7969C2.30469 16.9922 2.65625 17.1875 3.20312 17.4219C4.25781 17.8125 5.78125 18.125 7.5 18.125C9.21875 18.125 10.7422 17.8125 11.7969 17.4219C12.3438 17.1875 12.6953 16.9922 12.9297 16.7969C13.0859 16.6406 13.125 16.5625 13.125 16.5625V14.9609C12.7344 15.1562 12.2656 15.2734 11.7969 15.4297C10.5469 15.7422 9.02344 15.9375 7.5 15.9375C5.97656 15.9375 4.45312 15.7422 3.20312 15.4297C2.73438 15.2734 2.26562 15.1562 1.875 14.9609ZM13.125 8.4375C13.125 7.65625 10.625 6.875 7.5 6.875C4.41406 6.875 1.875 7.65625 1.875 8.4375C1.875 9.29688 4.41406 10 7.5 10C10.625 10 13.125 9.29688 13.125 8.4375Z" fill="url(#paint0_linear_1311_2931)"/>
<defs>
<linearGradient id="paint0_linear_1311_2931" x1="33.9802" y1="20.9325" x2="14.2614" y2="-16.7615" gradientUnits="userSpaceOnUse">
<stop stop-color="#073BC3"/>
<stop offset="0.54" stop-color="#131DBB"/>
<stop offset="1" stop-color="#5D07B7"/>
</linearGradient>
</defs>
</svg>
