<svg width="21" height="22" viewBox="0 0 21 22" fill="none" xmlns="http://www.w3.org/2000/svg">
<path d="M15.9375 0C15.9766 0.0390625 17.2656 1.28906 19.7266 3.78906L20.3906 4.45312L19.7266 5.11719C17.2656 7.61719 15.9766 8.86719 15.9375 8.90625L14.6484 7.57812C14.9219 7.26562 15.6641 6.5625 16.8359 5.39062H12.8906L7.57812 10.7031L12.8906 16.0156H16.8359C15.6641 14.8438 14.9219 14.1406 14.6484 13.8281L15.9375 12.5L16.6016 13.1641L19.7266 16.2891L20.3906 16.9531L19.7266 17.6172L16.6016 20.7422L15.9375 21.4062L14.6484 20.0781C14.9219 19.8047 15.6641 19.0625 16.8359 17.8906H12.1484L11.875 17.6172L5.89844 11.6406H0V9.76562H5.89844L11.875 3.78906L12.1484 3.51562H16.8359C15.6641 2.38281 14.9219 1.64062 14.6484 1.32812L15.9375 0Z" fill="url(#paint0_linear_1311_5957)"/>
<defs>
<linearGradient id="paint0_linear_1311_5957" x1="33.9802" y1="21.6356" x2="14.2614" y2="-16.0584" gradientUnits="userSpaceOnUse">
<stop stop-color="#073BC3"/>
<stop offset="0.54" stop-color="#131DBB"/>
<stop offset="1" stop-color="#5D07B7"/>
</linearGradient>
</defs>
</svg>
