<svg width="20" height="20" viewBox="0 0 20 20" fill="none" xmlns="http://www.w3.org/2000/svg">
<path d="M4.78125 4.25C4.78125 5.71094 5.97656 6.90625 7.4375 6.90625C8.89844 6.90625 10.0938 5.71094 10.0938 4.25C10.0938 2.78906 8.89844 1.59375 7.4375 1.59375C5.97656 1.59375 4.78125 2.78906 4.78125 4.25ZM1.66016 17H0L2.125 10.0938H10.0938C10.0938 10.6582 10.1934 11.1895 10.3262 11.6875H3.28711L1.66016 17ZM7.4375 8.5C5.08008 8.5 3.1875 6.60742 3.1875 4.25C3.1875 1.89258 5.08008 0 7.4375 0C9.79492 0 11.6875 1.89258 11.6875 4.25C11.6875 6.60742 9.79492 8.5 7.4375 8.5ZM19.125 10.0938C19.125 11.7539 18.0293 13.1484 16.5352 13.6465L17.5312 14.875L16.4688 15.9375L17.5312 17L15.4062 19.125L13.8125 17.5312V13.4473C12.5508 12.8496 11.6875 11.5879 11.6875 10.0938C11.6875 8.03516 13.3477 6.375 15.4062 6.375C17.4648 6.375 19.125 8.03516 19.125 10.0938ZM14.3438 9.5625C14.3438 10.1602 14.8086 10.625 15.4062 10.625C16.0039 10.625 16.4688 10.1602 16.4688 9.5625C16.4688 8.96484 16.0039 8.5 15.4062 8.5C14.8086 8.5 14.3438 8.96484 14.3438 9.5625Z" fill="black"/>
</svg>
