<svg width="48" height="48" viewBox="0 0 48 48" fill="none" xmlns="http://www.w3.org/2000/svg">
<rect x="0.5" y="0.5" width="47" height="47" rx="23.5" fill="#FAFAFC"/>
<rect x="0.5" y="0.5" width="47" height="47" rx="23.5" stroke="#F2F2F7"/>
<path d="M29.9375 13.7969C29.9766 13.8359 31.2656 15.0859 33.7266 17.5859L34.3906 18.25L33.7266 18.9141C31.2656 21.4141 29.9766 22.6641 29.9375 22.7031L28.6484 21.375C28.9219 21.0625 29.6641 20.3594 30.8359 19.1875H26.8906L21.5781 24.5L26.8906 29.8125H30.8359C29.6641 28.6406 28.9219 27.9375 28.6484 27.625L29.9375 26.2969L30.6016 26.9609L33.7266 30.0859L34.3906 30.75L33.7266 31.4141L30.6016 34.5391L29.9375 35.2031L28.6484 33.875C28.9219 33.6016 29.6641 32.8594 30.8359 31.6875H26.1484L25.875 31.4141L19.8984 25.4375H14V23.5625H19.8984L25.875 17.5859L26.1484 17.3125H30.8359C29.6641 16.1797 28.9219 15.4375 28.6484 15.125L29.9375 13.7969Z" fill="url(#paint0_linear_937_12783)"/>
<defs>
<linearGradient id="paint0_linear_937_12783" x1="47.9802" y1="35.4325" x2="28.2614" y2="-2.26149" gradientUnits="userSpaceOnUse">
<stop stop-color="#073BC3"/>
<stop offset="0.54" stop-color="#131DBB"/>
<stop offset="1" stop-color="#5D07B7"/>
</linearGradient>
</defs>
</svg>
