<svg width="20" height="20" viewBox="0 0 20 20" fill="none" xmlns="http://www.w3.org/2000/svg">
<path d="M18.125 10C18.125 5.50781 14.4922 1.875 10 1.875C5.50781 1.875 1.875 5.50781 1.875 10C1.875 14.4922 5.50781 18.125 10 18.125C14.4922 18.125 18.125 14.4922 18.125 10ZM0 10C0 4.49219 4.49219 0 10 0C15.5078 0 20 4.49219 20 10C20 15.5078 15.5078 20 10 20C4.49219 20 0 15.5078 0 10ZM9.0625 4.6875V3.75H10.9375V9.49219C13.5938 11.25 14.9609 12.1875 15.0391 12.2266L14.0234 13.7891L13.2422 13.2812L9.49219 10.7812L9.0625 10.5078V4.6875Z" fill="url(#paint0_linear_1286_5824)"/>
<defs>
<linearGradient id="paint0_linear_1286_5824" x1="33.9802" y1="20.9325" x2="14.2614" y2="-16.7615" gradientUnits="userSpaceOnUse">
<stop stop-color="#073BC3"/>
<stop offset="0.54" stop-color="#131DBB"/>
<stop offset="1" stop-color="#5D07B7"/>
</linearGradient>
</defs>
</svg>
