<svg width="15" height="15" viewBox="0 0 15 15" fill="none" xmlns="http://www.w3.org/2000/svg">
<path d="M7.73438 0V0.996094C10.1074 1.31836 11.9531 3.36914 11.9531 5.85938V7.96875L14.0625 12.1875H0L2.10938 7.96875V5.85938C2.10938 3.36914 3.95508 1.31836 6.32812 0.996094V0H7.73438ZM11.7773 10.7812L10.6934 8.61328C10.6055 8.4082 10.5469 8.20312 10.5469 7.96875V5.85938C10.5469 3.92578 8.96484 2.34375 7.03125 2.34375C5.09766 2.34375 3.51562 3.92578 3.51562 5.85938V7.96875C3.51562 8.20312 3.45703 8.4082 3.36914 8.61328L2.28516 10.7812H11.7773ZM5.03906 13.5938H9.02344C8.73047 14.4141 7.93945 15 7.03125 15C6.12305 15 5.33203 14.4141 5.03906 13.5938Z" fill="black"/>
</svg>
