<svg width="44" height="44" viewBox="0 0 44 44" fill="none" xmlns="http://www.w3.org/2000/svg">
<path d="M15.5519 16.2812H16.9581C17.339 16.2812 17.6613 16.6035 17.6613 16.9844V18.3906C17.6613 18.7715 17.339 19.0938 16.9581 19.0938H15.5519C15.171 19.0938 14.8488 18.7715 14.8488 18.3906V16.9844C14.8488 16.6035 15.171 16.2812 15.5519 16.2812ZM20.005 16.75H28.4425C28.9698 16.75 29.38 17.1602 29.38 17.6875C29.38 18.2148 28.9698 18.625 28.4425 18.625H20.005C19.4777 18.625 19.0675 18.2148 19.0675 17.6875C19.0675 17.1602 19.4777 16.75 20.005 16.75ZM20.005 21.4375H28.4425C28.9698 21.4375 29.38 21.8477 29.38 22.375C29.38 22.9023 28.9698 23.3125 28.4425 23.3125H20.005C19.4777 23.3125 19.0675 22.9023 19.0675 22.375C19.0675 21.8477 19.4777 21.4375 20.005 21.4375ZM20.005 26.125H28.4425C28.9698 26.125 29.38 26.5352 29.38 27.0625C29.38 27.5898 28.9698 28 28.4425 28H20.005C19.4777 28 19.0675 27.5898 19.0675 27.0625C19.0675 26.5352 19.4777 26.125 20.005 26.125ZM14.8488 21.6719C14.8488 21.291 15.171 20.9688 15.5519 20.9688H16.9581C17.339 20.9688 17.6613 21.291 17.6613 21.6719V23.0781C17.6613 23.459 17.339 23.7812 16.9581 23.7812H15.5519C15.171 23.7812 14.8488 23.459 14.8488 23.0781V21.6719ZM15.5519 25.6562H16.9581C17.339 25.6562 17.6613 25.9785 17.6613 26.3594V27.7656C17.6613 28.1465 17.339 28.4688 16.9581 28.4688H15.5519C15.171 28.4688 14.8488 28.1465 14.8488 27.7656V26.3594C14.8488 25.9785 15.171 25.6562 15.5519 25.6562Z" fill="black"/>
</svg>
