<svg width="14" height="14" viewBox="0 0 14 14" fill="none" xmlns="http://www.w3.org/2000/svg">
<path d="M-4.76837e-06 0.9375C-4.76837e-06 0.410156 0.410151 0 0.937495 0H2.34375C2.87109 0 3.28125 0.410156 3.28125 0.9375V2.34375C3.28125 2.87109 2.87109 3.28125 2.34375 3.28125H0.937495C0.410151 3.28125 -4.76837e-06 2.87109 -4.76837e-06 2.34375V0.9375ZM-4.76837e-06 5.85938C-4.76837e-06 5.33203 0.410151 4.92188 0.937495 4.92188H2.34375C2.87109 4.92188 3.28125 5.33203 3.28125 5.85938V7.26562C3.28125 7.79297 2.87109 8.20312 2.34375 8.20312H0.937495C0.410151 8.20312 -4.76837e-06 7.79297 -4.76837e-06 7.26562V5.85938ZM3.28125 10.7812V12.1875C3.28125 12.7148 2.87109 13.125 2.34375 13.125H0.937495C0.410151 13.125 -4.76837e-06 12.7148 -4.76837e-06 12.1875V10.7812C-4.76837e-06 10.2539 0.410151 9.84375 0.937495 9.84375H2.34375C2.87109 9.84375 3.28125 10.2539 3.28125 10.7812ZM4.92187 0.9375C4.92187 0.410156 5.33203 0 5.85937 0H7.26562C7.79296 0 8.20312 0.410156 8.20312 0.9375V2.34375C8.20312 2.87109 7.79296 3.28125 7.26562 3.28125H5.85937C5.33203 3.28125 4.92187 2.87109 4.92187 2.34375V0.9375ZM8.20312 5.85938V7.26562C8.20312 7.79297 7.79296 8.20312 7.26562 8.20312H5.85937C5.33203 8.20312 4.92187 7.79297 4.92187 7.26562V5.85938C4.92187 5.33203 5.33203 4.92188 5.85937 4.92188H7.26562C7.79296 4.92188 8.20312 5.33203 8.20312 5.85938ZM4.92187 10.7812C4.92187 10.2539 5.33203 9.84375 5.85937 9.84375H7.26562C7.79296 9.84375 8.20312 10.2539 8.20312 10.7812V12.1875C8.20312 12.7148 7.79296 13.125 7.26562 13.125H5.85937C5.33203 13.125 4.92187 12.7148 4.92187 12.1875V10.7812ZM13.125 0.9375V2.34375C13.125 2.87109 12.7148 3.28125 12.1875 3.28125H10.7812C10.2539 3.28125 9.84375 2.87109 9.84375 2.34375V0.9375C9.84375 0.410156 10.2539 0 10.7812 0H12.1875C12.7148 0 13.125 0.410156 13.125 0.9375ZM9.84375 5.85938C9.84375 5.33203 10.2539 4.92188 10.7812 4.92188H12.1875C12.7148 4.92188 13.125 5.33203 13.125 5.85938V7.26562C13.125 7.79297 12.7148 8.20312 12.1875 8.20312H10.7812C10.2539 8.20312 9.84375 7.79297 9.84375 7.26562V5.85938ZM13.125 10.7812V12.1875C13.125 12.7148 12.7148 13.125 12.1875 13.125H10.7812C10.2539 13.125 9.84375 12.7148 9.84375 12.1875V10.7812C9.84375 10.2539 10.2539 9.84375 10.7812 9.84375H12.1875C12.7148 9.84375 13.125 10.2539 13.125 10.7812Z" fill="black"/>
</svg>
