<svg width="15" height="16" viewBox="0 0 15 16" fill="none" xmlns="http://www.w3.org/2000/svg">
<path d="M13.0625 4.9375L11.9062 11.4375C12.5625 11.875 13 12.625 13 13.5C13 14.875 11.875 16 10.5 16C9.125 16 8 14.875 8 13.5C8 13.25 8.03125 12.9688 8.125 12.75L3.5625 8.75C3.25 8.90625 2.875 9 2.5 9C1.125 9 0 7.875 0 6.5C0 5.125 1.125 4 2.5 4C3.1875 4 3.8125 4.28125 4.25 4.71875L10 2.4375C10.0312 1.09375 11.1562 0 12.5 0C13.875 0 15 1.125 15 2.5C15 3.6875 14.1875 4.6875 13.0625 4.9375ZM4.875 7.25L9.4375 11.25C9.59375 11.1562 9.75 11.0938 9.9375 11.0625L11.0938 4.59375C10.9688 4.5 10.8438 4.40625 10.75 4.28125L5 6.59375C5 6.8125 4.96875 7.03125 4.875 7.25Z" fill="#636366"/>
</svg>
