<svg width="12" height="16" viewBox="0 0 12 16" fill="none" xmlns="http://www.w3.org/2000/svg">
<path d="M0 2C0 0.90625 0.90625 0 2 0H6.6875C7.21875 0 7.71875 0.21875 8.09375 0.59375L11.4062 3.90625C11.7812 4.28125 12 4.8125 12 5.34375V14C12 15.0938 11.0938 16 10 16H2C0.90625 16 0 15.0938 0 14V2ZM6.5 1.84375V4.75C6.5 5.15625 6.84375 5.5 7.25 5.5H10.1875L6.5 1.84375ZM2.75 2C2.34375 2 2 2.34375 2 2.75C2 3.15625 2.34375 3.5 2.75 3.5H4.25C4.65625 3.5 5 3.15625 5 2.75C5 2.34375 4.65625 2 4.25 2H2.75ZM2.75 5C2.34375 5 2 5.34375 2 5.75C2 6.15625 2.34375 6.5 2.75 6.5H4.25C4.65625 6.5 5 6.15625 5 5.75C5 5.34375 4.65625 5 4.25 5H2.75ZM4.9375 10C4.59375 10 4.25 10.1562 4.03125 10.4375L2.15625 12.7812C1.90625 13.0938 1.96875 13.5938 2.28125 13.8438C2.59375 14.0938 3.09375 14.0312 3.34375 13.7188L4.8125 11.875L5.28125 13.4688C5.375 13.7812 5.65625 14 6 14H9.25C9.65625 14 10 13.6562 10 13.25C10 12.8438 9.65625 12.5 9.25 12.5H6.5625L6.0625 10.8125C5.90625 10.3438 5.46875 10 4.9375 10Z" fill="url(#paint0_linear_1311_3034)"/>
<defs>
<linearGradient id="paint0_linear_1311_3034" x1="11.995" y1="19.4325" x2="-6.68269" y2="10.5065" gradientUnits="userSpaceOnUse">
<stop stop-color="#0D4BEF"/>
<stop offset="0.495" stop-color="#1A26E7"/>
<stop offset="1" stop-color="#7D0BF4"/>
</linearGradient>
</defs>
</svg>
