<svg width="12" height="20" viewBox="0 0 12 20" fill="none" xmlns="http://www.w3.org/2000/svg">
<path d="M4.6875 0H6.5625V2.5H10V4.375H3.98438C2.8125 4.375 1.875 5.3125 1.875 6.48438C1.875 7.5 2.61719 8.39844 3.63281 8.55469L7.77344 9.25781C9.80469 9.57031 11.25 11.3281 11.25 13.3594C11.25 15.625 9.375 17.5 7.10938 17.5H6.5625V20H4.6875V17.5H0.625V15.625H7.10938C8.35938 15.625 9.375 14.6094 9.375 13.3594C9.375 12.2266 8.55469 11.2891 7.46094 11.0938L3.32031 10.4297C1.40625 10.0781 0 8.4375 0 6.48438C0 4.29688 1.79688 2.5 3.98438 2.5H4.6875V0Z" fill="url(#paint0_linear_1286_10399)"/>
<defs>
<linearGradient id="paint0_linear_1286_10399" x1="29.6052" y1="20.9325" x2="9.8864" y2="-16.7615" gradientUnits="userSpaceOnUse">
<stop stop-color="#073BC3"/>
<stop offset="0.54" stop-color="#131DBB"/>
<stop offset="1" stop-color="#5D07B7"/>
</linearGradient>
</defs>
</svg>
