<svg width="25" height="19" viewBox="0 0 25 19" fill="none" xmlns="http://www.w3.org/2000/svg">
<path d="M15 4.375C15 3.00781 13.8672 1.875 12.5 1.875C11.1328 1.875 10 3.00781 10 4.375C10 5.74219 11.1328 6.875 12.5 6.875C13.8672 6.875 15 5.74219 15 4.375ZM8.125 4.375C8.125 1.95312 10.0781 0 12.5 0C14.9219 0 16.875 1.95312 16.875 4.375C16.875 6.79688 14.9219 8.75 12.5 8.75C10.0781 8.75 8.125 6.79688 8.125 4.375ZM18.0078 7.34375C18.2422 7.46094 18.4766 7.5 18.75 7.5C19.8047 7.5 20.625 6.67969 20.625 5.625C20.625 4.60938 19.8047 3.75 18.75 3.75H18.7109C18.6719 3.08594 18.4766 2.5 18.2422 1.91406C18.3984 1.875 18.5938 1.875 18.75 1.875C20.8203 1.875 22.5 3.55469 22.5 5.625C22.5 7.69531 20.8203 9.375 18.75 9.375C18.0469 9.375 17.4219 9.17969 16.8359 8.86719C17.3047 8.4375 17.6953 7.89062 18.0078 7.34375ZM8.16406 8.86719C7.57812 9.17969 6.95312 9.375 6.25 9.375C4.17969 9.375 2.5 7.69531 2.5 5.625C2.5 3.55469 4.17969 1.875 6.25 1.875C6.40625 1.875 6.60156 1.875 6.75781 1.91406C6.52344 2.5 6.32812 3.125 6.28906 3.75H6.25C5.23438 3.75 4.375 4.60938 4.375 5.625C4.375 6.67969 5.23438 7.5 6.25 7.5C6.52344 7.5 6.75781 7.46094 6.99219 7.34375C7.30469 7.89062 7.69531 8.4375 8.16406 8.86719ZM16.875 10.625L19.6094 18.125H17.6172L15.5469 12.5H9.45312L7.38281 18.125H5.39062L8.125 10.625H16.875ZM5.89844 11.25L5.23438 13.125H3.82812L1.99219 18.125H0L2.5 11.25H5.89844ZM19.7656 13.125L19.1016 11.25H22.5L25 18.125H23.0078L21.1719 13.125H19.7656Z" fill="url(#paint0_linear_2732_6332)"/>
<defs>
<linearGradient id="paint0_linear_2732_6332" x1="36.4802" y1="20.3075" x2="16.7614" y2="-17.3865" gradientUnits="userSpaceOnUse">
<stop stop-color="#073BC3"/>
<stop offset="0.54" stop-color="#131DBB"/>
<stop offset="1" stop-color="#5D07B7"/>
</linearGradient>
</defs>
</svg>
