<svg width="18" height="19" viewBox="0 0 18 19" fill="none" xmlns="http://www.w3.org/2000/svg">
<path d="M13.5469 0C13.5801 0.0332031 14.6758 1.0957 16.7676 3.2207L17.332 3.78516L16.7676 4.34961C14.6758 6.47461 13.5801 7.53711 13.5469 7.57031L12.4512 6.44141C12.6836 6.17578 13.3145 5.57812 14.3105 4.58203H10.957L6.44141 9.09766L10.957 13.6133H14.3105C13.3145 12.6172 12.6836 12.0195 12.4512 11.7539L13.5469 10.625L14.1113 11.1895L16.7676 13.8457L17.332 14.4102L16.7676 14.9746L14.1113 17.6309L13.5469 18.1953L12.4512 17.0664C12.6836 16.834 13.3145 16.2031 14.3105 15.207H10.3262L10.0938 14.9746L5.01367 9.89453H0V8.30078H5.01367L10.0938 3.2207L10.3262 2.98828H14.3105C13.3145 2.02539 12.6836 1.39453 12.4512 1.12891L13.5469 0Z" fill="black"/>
</svg>
