<svg width="23" height="18" viewBox="0 0 23 18" fill="none" xmlns="http://www.w3.org/2000/svg">
<path d="M20.625 5H1.875V15.625H3.94531L5 12.5H11.25L12.3047 15.625H20.625V5ZM1.875 0H22.5V17.5H0V0H1.875ZM10.3125 8.75C10.3125 9.96094 9.33594 10.9375 8.125 10.9375C6.91406 10.9375 5.9375 9.96094 5.9375 8.75C5.9375 7.53906 6.91406 6.5625 8.125 6.5625C9.33594 6.5625 10.3125 7.53906 10.3125 8.75ZM14.6875 6.875H18.75V8.75H13.75V6.875H14.6875ZM14.6875 10.625H18.75V12.5H13.75V10.625H14.6875Z" fill="url(#paint0_linear_4034_87570)"/>
<defs>
<linearGradient id="paint0_linear_4034_87570" x1="35.2302" y1="19.6825" x2="15.5114" y2="-18.0115" gradientUnits="userSpaceOnUse">
<stop stop-color="#073BC3"/>
<stop offset="0.54" stop-color="#131DBB"/>
<stop offset="1" stop-color="#5D07B7"/>
</linearGradient>
</defs>
</svg>
