<svg width="23" height="23" viewBox="0 0 23 23" fill="none" xmlns="http://www.w3.org/2000/svg">
<path d="M5.625 15.0781L3.75 16.25V13.125H0V0H15V13.125H8.75L5.625 15.0781ZM5.625 12.8516C7.34375 11.7969 8.20312 11.25 8.20312 11.25H13.125V1.875H1.875V11.25H5.625V12.8516ZM7.5 17.5V16.1328L9.29688 15H9.375V17.5H14.2969C14.2969 17.5 15.1953 18.0469 16.875 19.1016V17.5H20.625V8.125H16.875V6.25H22.5V19.375H18.75V22.5L13.75 19.375H7.5V17.5ZM8.4375 2.5V3.4375H9.53125V5H7.07031C6.875 5 6.71875 5.15625 6.71875 5.35156C6.71875 5.50781 6.83594 5.625 6.99219 5.66406L8.32031 5.9375C9.21875 6.09375 9.84375 6.875 9.84375 7.77344C9.84375 8.67188 9.25781 9.41406 8.4375 9.60938V10.625H6.875V9.6875H5.46875V8.125H7.92969C8.125 8.125 8.28125 7.96875 8.28125 7.77344C8.28125 7.61719 8.16406 7.5 8.00781 7.46094L6.67969 7.1875C5.78125 7.03125 5.15625 6.25 5.15625 5.35156C5.15625 4.33594 5.89844 3.55469 6.875 3.4375V2.5H8.4375Z" fill="url(#paint0_linear_1780_794)"/>
<defs>
<linearGradient id="paint0_linear_1780_794" x1="35.2302" y1="22.1825" x2="15.5114" y2="-15.5115" gradientUnits="userSpaceOnUse">
<stop stop-color="#073BC3"/>
<stop offset="0.54" stop-color="#131DBB"/>
<stop offset="1" stop-color="#5D07B7"/>
</linearGradient>
</defs>
</svg>
