<svg width="18" height="18" viewBox="0 0 18 18" fill="none" xmlns="http://www.w3.org/2000/svg">
<path d="M12.25 2.65625L14 2L14.6562 0.21875C14.7188 0.09375 14.8438 0 15 0C15.1562 0 15.2812 0.09375 15.3438 0.21875L16 2L17.7812 2.65625C17.9062 2.71875 18 2.84375 18 3C18 3.15625 17.9062 3.28125 17.7812 3.34375L16 4L15.3438 5.78125C15.2812 5.90625 15.1562 6 15 6C14.8438 6 14.7188 5.90625 14.6562 5.78125L14 4L12.25 3.34375C12.0938 3.28125 12 3.15625 12 3C12 2.84375 12.0938 2.71875 12.25 2.65625ZM6.46875 3.28125H6.4375L8.125 6.875L11.7188 8.5625C11.875 8.625 12 8.8125 12 9C12 9.1875 11.875 9.375 11.7188 9.46875L8.125 11.125L6.4375 14.7188C6.375 14.875 6.1875 15 6 15C5.8125 15 5.625 14.875 5.53125 14.7188L3.875 11.125L0.28125 9.46875C0.125 9.375 0 9.1875 0 9C0 8.8125 0.125 8.625 0.28125 8.53125L3.875 6.875L5.5625 3.28125C5.625 3.125 5.8125 3 6 3C6.1875 3 6.375 3.125 6.46875 3.28125ZM13 14L13.6562 12.25C13.7188 12.0938 13.8438 12 14 12C14.1562 12 14.2812 12.0938 14.3438 12.25L15 14L16.7812 14.6562C16.9062 14.7188 17 14.8438 17 15C17 15.1562 16.9062 15.2812 16.7812 15.3438L15 16L14.3438 17.7812C14.2812 17.9062 14.1562 18 14 18C13.8438 18 13.7188 17.9062 13.6562 17.7812L13 16L11.25 15.3438C11.0938 15.2812 11 15.1562 11 15C11 14.8438 11.0938 14.7188 11.25 14.6562L13 14Z" fill="#636366"/>
</svg>
