<svg width="17" height="17" viewBox="0 0 17 17" fill="none" xmlns="http://www.w3.org/2000/svg">
<path d="M12.8125 0C14.5938 0 16.0312 1.4375 16.0312 3.21875C16.0312 4.09375 15.6875 4.90625 15.0938 5.5L10.3438 10.25L5.78125 5.6875L8.90625 2.5625L8.5 2.15625C8.21875 1.875 7.75 1.875 7.4375 2.15625L4.3125 5.28125C4.03125 5.5625 3.53125 5.5625 3.25 5.28125C2.96875 5 2.96875 4.5 3.25 4.21875L6.375 1.09375C7.25 0.21875 8.6875 0.21875 9.5625 1.09375L9.96875 1.5L10.5312 0.9375C11.125 0.34375 11.9375 0 12.8125 0ZM3.21875 8.25L4.71875 6.75L9.28125 11.3125L7.78125 12.8125C6.21875 14.375 4.21875 15.4062 2.0625 15.7812L0.90625 16C0.65625 16.0312 0.4375 15.9688 0.25 15.7812C0.09375 15.5938 0 15.375 0.03125 15.125L0.25 13.9688C0.625 11.8125 1.6875 9.8125 3.21875 8.25Z" fill="#636366"/>
</svg>
