<svg width="16" height="16" viewBox="0 0 16 16" fill="none" xmlns="http://www.w3.org/2000/svg">
<path d="M12.1875 6.09375C12.1875 7.44141 11.748 8.67188 11.0156 9.69727L14.7363 13.3887L15.4102 14.0625L14.0625 15.3809L13.418 14.7363L9.69727 11.0156C8.70117 11.748 7.44141 12.1875 6.09375 12.1875C2.72461 12.1875 0 9.46289 0 6.09375C0 2.72461 2.72461 0 6.09375 0C9.46289 0 12.1875 2.72461 12.1875 6.09375ZM6.09375 10.3125C8.4375 10.3125 10.3125 8.4375 10.3125 6.09375C10.3125 3.75 8.4375 1.875 6.09375 1.875C3.7793 1.875 1.875 3.75 1.875 6.09375C1.875 8.4375 3.7793 10.3125 6.09375 10.3125Z" fill="url(#paint0_linear_966_942)"/>
<defs>
<linearGradient id="paint0_linear_966_942" x1="15.993" y1="18.5575" x2="-6.29463" y2="3.46839" gradientUnits="userSpaceOnUse">
<stop stop-color="#073BC3"/>
<stop offset="0.54" stop-color="#131DBB"/>
<stop offset="1" stop-color="#5D07B7"/>
</linearGradient>
</defs>
</svg>
