<svg width="16" height="16" viewBox="0 0 16 16" fill="none" xmlns="http://www.w3.org/2000/svg">
<path d="M6.35742 0H10.1953C10.2246 0.117188 10.4297 0.966797 10.7812 2.54883C10.957 2.63672 11.1328 2.75391 11.3086 2.8418C12.8613 2.37305 13.6816 2.10938 13.7988 2.08008L14.0918 2.57812L15.7324 5.41992L15.9961 5.88867C15.9082 5.97656 15.2637 6.5625 14.0918 7.67578C14.0918 7.88086 14.0918 8.08594 14.0918 8.29102C15.2637 9.375 15.9082 9.96094 15.9961 10.0488L15.7324 10.5469L14.0918 13.3887L13.7988 13.8574C13.6816 13.8281 12.8613 13.5645 11.3086 13.0957C11.1328 13.2129 10.957 13.3008 10.7812 13.3887C10.4297 14.9707 10.2246 15.8203 10.1953 15.9375H5.80078C5.77148 15.8203 5.5957 14.9707 5.21484 13.3887C5.03906 13.3008 4.86328 13.2129 4.6875 13.0957C3.16406 13.5645 2.31445 13.8281 2.19727 13.8574L1.93359 13.3887L0.292969 10.5469L0 10.0488C0.0878906 9.96094 0.732422 9.375 1.9043 8.29102C1.9043 8.08594 1.9043 7.85156 1.9043 7.67578C0.732422 6.5625 0.0878906 5.97656 0 5.88867L0.292969 5.41992L1.93359 2.57812L2.19727 2.08008L4.6875 2.8418C4.86328 2.75391 5.03906 2.63672 5.21484 2.54883C5.5957 0.966797 5.77148 0.117188 5.80078 0H6.35742ZM6.5332 3.19336L6.44531 3.54492L6.12305 3.66211C5.80078 3.80859 5.50781 3.98438 5.24414 4.18945L4.95117 4.39453L4.59961 4.30664L2.87109 3.75L1.78711 5.625L3.13477 6.85547L3.39844 7.08984L3.33984 7.44141C3.33984 7.61719 3.31055 7.79297 3.31055 7.96875C3.31055 8.14453 3.33984 8.32031 3.33984 8.49609L3.39844 8.84766L3.13477 9.08203L1.78711 10.3125L2.87109 12.1875L4.59961 11.6309L4.95117 11.543L5.24414 11.748C5.50781 11.9531 5.80078 12.1289 6.12305 12.2754L6.44531 12.4219L6.5332 12.7441L6.91406 14.5312H9.08203L9.49219 12.7441L9.55078 12.4219L9.90234 12.2754C10.1953 12.1289 10.5176 11.9531 10.7812 11.748L11.0742 11.543L11.3965 11.6309L13.1543 12.1875L14.2383 10.3125L12.8906 9.08203L12.627 8.84766L12.6562 8.49609C12.6855 8.32031 12.6855 8.14453 12.6855 7.96875C12.6855 7.79297 12.6855 7.61719 12.6562 7.44141L12.627 7.08984L12.8906 6.85547L14.2383 5.625L13.1543 3.75L11.3965 4.30664L11.0742 4.39453L10.7812 4.18945C10.5176 3.98438 10.1953 3.80859 9.90234 3.66211L9.55078 3.54492L9.49219 3.19336L9.08203 1.40625H6.91406L6.5332 3.19336ZM9.4043 7.96875C9.4043 7.20703 8.75977 6.5625 7.99805 6.5625C7.23633 6.5625 6.5918 7.20703 6.5918 7.96875C6.5918 8.73047 7.23633 9.375 7.99805 9.375C8.75977 9.375 9.4043 8.73047 9.4043 7.96875ZM7.99805 5.15625C9.55078 5.15625 10.8105 6.41602 10.8105 7.96875C10.8105 9.52148 9.55078 10.7812 7.99805 10.7812C6.44531 10.7812 5.18555 9.52148 5.18555 7.96875C5.18555 6.41602 6.44531 5.15625 7.99805 5.15625Z" fill="black"/>
</svg>
