<svg width="17" height="17" viewBox="0 0 17 17" fill="none" xmlns="http://www.w3.org/2000/svg">
<path d="M10.625 0C12.252 0 13.7461 0.265625 14.875 0.730469C15.4062 0.929688 15.9043 1.22852 16.3027 1.56055C16.668 1.85938 17 2.32422 17 2.92188V9.82812C17 10.4258 16.668 10.8906 16.3027 11.2227C15.9043 11.5547 15.4062 11.8203 14.875 12.0195C14.709 12.0859 14.5098 12.1523 14.3438 12.2188V10.5254C14.7754 10.3594 15.0742 10.1602 15.2402 9.99414C15.373 9.89453 15.4062 9.82812 15.4062 9.79492V8.4668C15.0742 8.59961 14.709 8.73242 14.3438 8.83203V7.17188C14.6094 7.07227 14.8418 7.00586 15.041 6.90625C15.1738 6.80664 15.3066 6.74023 15.4062 6.67383V4.91406C15.2402 5.01367 15.041 5.08008 14.8418 5.17969C14.543 5.2793 14.2109 5.37891 13.8789 5.47852C13.6465 5.11328 13.3809 4.78125 13.1152 4.54883C12.9492 4.41602 12.75 4.25 12.5508 4.11719C14.2441 3.91797 15.4062 3.45312 15.4062 2.92188C15.4062 2.25781 13.248 1.59375 10.625 1.59375C8.33398 1.59375 6.4082 2.0918 5.94336 2.65625C5.37891 2.65625 4.81445 2.72266 4.25 2.78906C4.2832 2.25781 4.61523 1.82617 4.94727 1.52734C5.3457 1.19531 5.84375 0.929688 6.375 0.730469C7.50391 0.265625 8.99805 0 10.625 0ZM2.125 4.98047C3.25391 4.51562 4.74805 4.25 6.375 4.25C8.00195 4.25 9.49609 4.51562 10.625 4.98047C11.1562 5.17969 11.6543 5.47852 12.0527 5.81055C12.418 6.10938 12.75 6.57422 12.75 7.17188V14.0781C12.75 14.6758 12.418 15.1406 12.0527 15.4727C11.6543 15.8047 11.1562 16.0703 10.625 16.2695C9.49609 16.7344 8.00195 17 6.375 17C4.74805 17 3.25391 16.7344 2.125 16.2695C1.59375 16.0703 1.0957 15.7715 0.697266 15.4727C0.332031 15.1406 0 14.6758 0 14.0781V7.17188C0 6.57422 0.332031 6.10938 0.697266 5.81055C1.0957 5.47852 1.59375 5.17969 2.125 4.98047ZM10.5918 9.42969C9.49609 9.86133 8.00195 10.0938 6.375 10.0938C4.78125 10.0938 3.25391 9.86133 2.1582 9.42969C1.95898 9.36328 1.75977 9.26367 1.59375 9.19727V10.9238C1.69336 10.9902 1.82617 11.0898 1.99219 11.1562C2.29102 11.2891 2.65625 11.4551 3.12109 11.5547C4.05078 11.8203 5.17969 11.9531 6.375 11.9531C7.57031 11.9531 8.69922 11.8203 9.62891 11.5547C10.0938 11.4551 10.459 11.2891 10.791 11.1562C10.9238 11.0898 11.0566 10.9902 11.1562 10.9238V9.19727C10.9902 9.26367 10.791 9.36328 10.5918 9.42969ZM1.59375 12.7168V14.0781C1.59375 14.0781 1.62695 14.1445 1.75977 14.2773C1.95898 14.4434 2.25781 14.6094 2.72266 14.8086C3.61914 15.1406 4.91406 15.4062 6.375 15.4062C7.83594 15.4062 9.13086 15.1406 10.0273 14.8086C10.4922 14.6094 10.791 14.4434 10.9902 14.2773C11.123 14.1445 11.1562 14.0781 11.1562 14.0781V12.7168C10.8242 12.8828 10.4258 12.9824 10.0273 13.1152C8.96484 13.3809 7.66992 13.5469 6.375 13.5469C5.08008 13.5469 3.78516 13.3809 2.72266 13.1152C2.32422 12.9824 1.92578 12.8828 1.59375 12.7168ZM11.1562 7.17188C11.1562 6.50781 9.03125 5.84375 6.375 5.84375C3.75195 5.84375 1.59375 6.50781 1.59375 7.17188C1.59375 7.90234 3.75195 8.5 6.375 8.5C9.03125 8.5 11.1562 7.90234 11.1562 7.17188Z" fill="black"/>
</svg>
