<svg width="19" height="20" viewBox="0 0 19 20" fill="none" xmlns="http://www.w3.org/2000/svg">
<path d="M14.375 3.125C14.375 3.82812 14.9219 4.375 15.625 4.375C16.3281 4.375 16.875 3.82812 16.875 3.125C16.875 2.42188 16.3281 1.875 15.625 1.875C14.9219 1.875 14.375 2.42188 14.375 3.125ZM13.2031 5.11719L6.25 7.89062C6.25 7.96875 6.25 8.04688 6.25 8.125C6.25 8.59375 6.17188 8.98438 5.97656 9.375L11.4844 14.2188C11.875 13.9844 12.3047 13.8281 12.7344 13.7891L14.1797 5.89844C13.7891 5.70312 13.4766 5.42969 13.2031 5.11719ZM16.0156 6.21094L14.5703 14.1016C15.5859 14.6484 16.25 15.6641 16.25 16.875C16.25 18.5938 14.8438 20 13.125 20C11.4062 20 10 18.5938 10 16.875C10 16.4453 10.0781 16.0156 10.2734 15.625L4.76562 10.7812C4.29688 11.0938 3.71094 11.25 3.125 11.25C1.40625 11.25 0 9.84375 0 8.125C0 6.40625 1.40625 5 3.125 5C4.10156 5 4.96094 5.42969 5.54688 6.13281L12.5 3.35938C12.5 3.28125 12.5 3.20312 12.5 3.125C12.5 1.40625 13.9062 0 15.625 0C17.3438 0 18.75 1.40625 18.75 3.125C18.75 4.72656 17.5781 6.05469 16.0156 6.21094ZM11.875 16.875C11.875 17.5781 12.4219 18.125 13.125 18.125C13.8281 18.125 14.375 17.5781 14.375 16.875C14.375 16.1719 13.8281 15.625 13.125 15.625C12.4219 15.625 11.875 16.1719 11.875 16.875ZM3.125 6.875C2.42188 6.875 1.875 7.42188 1.875 8.125C1.875 8.82812 2.42188 9.375 3.125 9.375C3.82812 9.375 4.375 8.82812 4.375 8.125C4.375 7.42188 3.82812 6.875 3.125 6.875Z" fill="url(#paint0_linear_1311_9309)"/>
<defs>
<linearGradient id="paint0_linear_1311_9309" x1="33.9802" y1="20.9325" x2="14.2614" y2="-16.7615" gradientUnits="userSpaceOnUse">
<stop stop-color="#073BC3"/>
<stop offset="0.54" stop-color="#131DBB"/>
<stop offset="1" stop-color="#5D07B7"/>
</linearGradient>
</defs>
</svg>
