<svg width="24" height="21" viewBox="0 0 24 21" fill="none" xmlns="http://www.w3.org/2000/svg">
<path d="M6.51562 3L7.5 0H16.5L17.4844 3H24V21H0V3H6.51562ZM7.5 15.75L10.5 12H8.625C8.625 10.125 10.125 8.625 12 8.625C12.1875 8.625 12.4219 8.625 12.6094 8.67188L14.25 6.84375C13.5469 6.5625 12.7969 6.375 12 6.375C8.90625 6.375 6.375 8.90625 6.375 12H4.5L7.5 15.75ZM16.5 8.25L13.5 12H15.375C15.375 13.875 13.875 15.375 12 15.375C11.8125 15.375 11.5781 15.375 11.3906 15.3281L9.75 17.1562C10.4531 17.4844 11.2031 17.625 12 17.625C15.0938 17.625 17.625 15.0938 17.625 12H19.5L16.5 8.25Z" fill="url(#paint0_linear_2928_10396)"/>
<defs>
<linearGradient id="paint0_linear_2928_10396" x1="0" y1="-1.5" x2="24" y2="22.5" gradientUnits="userSpaceOnUse">
<stop stop-color="#9B3CFF"/>
<stop offset="1" stop-color="#2D67FF"/>
</linearGradient>
</defs>
</svg>
