<svg width="27" height="21" viewBox="0 0 27 21" fill="none" xmlns="http://www.w3.org/2000/svg">
<path d="M2.25 18C2.25 18.4219 2.57812 18.75 3 18.75H4.5C4.5 16.6875 6.1875 15 8.25 15H11.25C13.3125 15 15 16.6875 15 18.75H24C24.4219 18.75 24.75 18.4219 24.75 18V6H2.25V18ZM3 0H24C25.6406 0 27 1.35938 27 3V18C27 19.6406 25.6406 21 24 21H3C1.35938 21 0 19.6406 0 18V3C0 1.35938 1.35938 0 3 0ZM9.75 13.125C8.29688 13.125 7.125 11.9531 7.125 10.5C7.125 9.04688 8.29688 7.875 9.75 7.875C11.2031 7.875 12.375 9.04688 12.375 10.5C12.375 11.9531 11.2031 13.125 9.75 13.125ZM17.625 8.25H21.375C21.9844 8.25 22.5 8.76562 22.5 9.375C22.5 9.98438 21.9844 10.5 21.375 10.5H17.625C17.0156 10.5 16.5 9.98438 16.5 9.375C16.5 8.76562 17.0156 8.25 17.625 8.25ZM17.625 12.75H21.375C21.9844 12.75 22.5 13.2656 22.5 13.875C22.5 14.4844 21.9844 15 21.375 15H17.625C17.0156 15 16.5 14.4844 16.5 13.875C16.5 13.2656 17.0156 12.75 17.625 12.75Z" fill="url(#paint0_linear_2928_10365)"/>
<defs>
<linearGradient id="paint0_linear_2928_10365" x1="0" y1="-1.5" x2="23.8345" y2="25.3138" gradientUnits="userSpaceOnUse">
<stop stop-color="#9B3CFF"/>
<stop offset="1" stop-color="#2D67FF"/>
</linearGradient>
</defs>
</svg>
