<svg width="24" height="18" viewBox="0 0 24 18" fill="none" xmlns="http://www.w3.org/2000/svg">
<path d="M3 2.25C2.57812 2.25 2.25 2.57812 2.25 3V15C2.25 15.4219 2.57812 15.75 3 15.75H21C21.4219 15.75 21.75 15.4219 21.75 15V3C21.75 2.57812 21.4219 2.25 21 2.25H3ZM0 3C0 1.35938 1.35938 0 3 0H21C22.6406 0 24 1.35938 24 3V15C24 16.6406 22.6406 18 21 18H3C1.35938 18 0 16.6406 0 15V3ZM5.625 4.5C6.23438 4.5 6.75 5.01562 6.75 5.625V12.375C6.75 12.9844 6.23438 13.5 5.625 13.5C5.01562 13.5 4.5 12.9844 4.5 12.375V5.625C4.5 5.01562 5.01562 4.5 5.625 4.5ZM8.25 5.25C8.25 4.82812 8.57812 4.5 9 4.5C9.42188 4.5 9.75 4.82812 9.75 5.25V12.75C9.75 13.1719 9.42188 13.5 9 13.5C8.57812 13.5 8.25 13.1719 8.25 12.75V5.25ZM12.375 4.5C12.9844 4.5 13.5 5.01562 13.5 5.625V12.375C13.5 12.9844 12.9844 13.5 12.375 13.5C11.7656 13.5 11.25 12.9844 11.25 12.375V5.625C11.25 5.01562 11.7656 4.5 12.375 4.5ZM15 5.25C15 4.82812 15.3281 4.5 15.75 4.5C16.1719 4.5 16.5 4.82812 16.5 5.25V12.75C16.5 13.1719 16.1719 13.5 15.75 13.5C15.3281 13.5 15 13.1719 15 12.75V5.25ZM18.75 4.5C19.1719 4.5 19.5 4.82812 19.5 5.25V12.75C19.5 13.1719 19.1719 13.5 18.75 13.5C18.3281 13.5 18 13.1719 18 12.75V5.25C18 4.82812 18.3281 4.5 18.75 4.5Z" fill="url(#paint0_linear_2928_10380)"/>
<defs>
<linearGradient id="paint0_linear_2928_10380" x1="0" y1="-3" x2="24" y2="21" gradientUnits="userSpaceOnUse">
<stop stop-color="#9B3CFF"/>
<stop offset="1" stop-color="#2D67FF"/>
</linearGradient>
</defs>
</svg>
